<?xml version="1.0" ?><!DOCTYPE svg  PUBLIC '-//W3C//DTD SVG 1.1//EN'  'http://www.w3.org/Graphics/SVG/1.1/DTD/svg11.dtd'><svg enable-background="new 0 0 128 128" height="128px" id="Layer_1" version="1.1" viewBox="0 0 128 128" width="128px" xml:space="preserve" xmlns="http://www.w3.org/2000/svg" xmlns:xlink="http://www.w3.org/1999/xlink"><path d="M111,18c3.3,0,6,2.7,6,6v66c0,3.3-2.7,6-6,6H18c-3.3,0-6-2.7-6-6V24c0-3.3,2.7-6,6-6H111 M111,14H18  c-5.5,0-10,4.5-10,10v66c0,5.5,4.5,10,10,10h93c5.5,0,10-4.5,10-10V24C121,18.5,116.5,14,111,14L111,14z" fill="#2C3E50"/><circle cx="65" cy="88" fill="#2C3E50" r="3"/><path d="M83.5,113H67v-8.5c0-1.1-0.9-2-2-2s-2,0.9-2,2v8.5H46.5c-1.1,0-2,0.9-2,2s0.9,2,2,2h37c1.1,0,2-0.9,2-2  S84.6,113,83.5,113z" fill="#2C3E50"/><path d="M108,27v51H21V27H108 M110,25H19v55h91V25L110,25z" fill="#3B97D3"/></svg>